<?xml version="1.0" encoding="utf-8"?>
<!-- Generator: Adobe Illustrator 24.0.0, SVG Export Plug-In . SVG Version: 6.00 Build 0)  -->
<svg version="1.1" id="レイヤー_1" xmlns="http://www.w3.org/2000/svg" xmlns:xlink="http://www.w3.org/1999/xlink" x="0px"
	 y="0px" viewBox="0 0 00 500" xml:space="preserve">
	 <defs>

<title>名称未設定-1</title>
<clipPath id="mahoujin1" transform="scale(0.0028, 0.0028)">
<style type="text/css">
	.st0{fill:#040000;stroke:#000000;stroke-miterlimit:10;}
	.st1{fill:none;stroke:#000000;stroke-miterlimit:10;}
	.st2{font-family:'ArialMT';}
	.st3{font-size:12.0539px;}
	.st4{font-size:12px;}
	.st5{font-size:11.9886px;}
	.st6{font-size:12.0252px;}
	.st7{font-size:12.0509px;}
	.st8{font-size:12.0527px;}
	.st9{font-size:11.967px;}
	.st10{font-size:12.0006px;}
	.st11{font-size:11.9531px;}
	.st12{font-size:12.0024px;}
	.st13{font-size:11.9832px;}
	.st14{font-size:11.9645px;}
	.st15{font-size:12.015px;}
	.st16{font-size:12.0599px;}
	.st17{font-size:12.0288px;}
	.st18{font-size:11.991px;}
	.st19{font-size:11.982px;}
	.st20{font-size:12.0108px;}
	.st21{font-size:12.0204px;}
	.st22{font-size:11.9386px;}
	.st23{font-size:11.9916px;}
	.st24{font-size:12.0491px;}
	.st25{font-size:12.0216px;}
</style>
	<path class="st0" d="M340.7,267.7l-5.9-20.5l18.6-9.1l0.5-0.3l-34.7-71.2c0.1,1.1,0.1,2.1,0.2,3.1l32.9,67.5l-17.9,8.7l-15.6-54.5
		c-0.1,1-0.2,2.1-0.4,3.1l14.9,51.9l-48.6,23.7c-0.7,0.8-1.4,1.6-2.1,2.4l51-24.9l5.5,19.1l-72.3,20.7c-0.8,0.7-1.6,1.3-2.5,2
		l75.6-21.7L340.7,267.7z M289.6,89.5l-21.7-75.6l-0.2-0.6l-20.5,5.9l-9.1-18.6L237.9,0l-71.2,34.8c1-0.1,2.1-0.2,3.1-0.2l67.5-32.9
		l8.7,17.9l-54.5,15.6c1,0.1,2.1,0.2,3.1,0.4l51.9-14.9l23.7,48.6c0.8,0.7,1.6,1.4,2.4,2.1l-24.9-51l19.1-5.5L287.6,87
		C288.3,87.8,288.9,88.6,289.6,89.5z M115.8,353.4l0.3,0.5l71.2-34.7c-1,0.1-2.1,0.1-3.1,0.2l-67.5,33l-8.7-17.9l54.5-15.6
		c-1-0.1-2.1-0.2-3.1-0.4l-51.9,14.9l-23.7-48.6c-0.8-0.7-1.6-1.4-2.3-2.1l24.9,51l-19.1,5.5L66.3,267c-0.7-0.8-1.3-1.6-2-2.5
		l21.7,75.6l0.2,0.6l20.5-5.9L115.8,353.4z M1.6,116.6l17.9-8.7l15.6,54.5c0.1-1,0.2-2.1,0.4-3.1l-14.9-51.9l48.6-23.7
		c0.7-0.8,1.4-1.6,2.1-2.3l-51,24.9l-5.5-19.1L87,66.3c0.8-0.7,1.6-1.3,2.5-2L13.3,86.2l5.9,20.5l-18.6,9.1L0,116l34.7,71.2
		c-0.1-1-0.1-2.1-0.2-3.1L1.6,116.6z"/>
	<path class="st0" d="M49.5,120.2c31.3-70.4,113.8-102,184.2-70.7s102,113.8,70.7,184.2s-113.8,102-184.2,70.7
		c-33.8-15-60.2-42.9-73.5-77.4C33.4,192.5,34.4,154,49.5,120.2z M303.7,233.4c31.1-69.9-0.4-152-70.3-183.1s-152,0.4-183.1,70.3
		s0.4,152,70.3,183.1S272.6,303.3,303.7,233.4z"/>
	<path class="st0" d="M51.9,121.3c30.7-69,111.6-100.1,180.7-69.4S332.7,163.6,302,232.6S190.4,332.7,121.3,302
		c-33.2-14.8-59.1-42.1-72.1-76C36.1,192.1,37.1,154.4,51.9,121.3z M300.5,232c30.3-68.1-0.4-148.2-68.5-178.6S83.7,53.8,53.4,122
		s0.4,148.2,68.5,178.6S270.2,300.1,300.5,232z"/>
		<text transform="matrix(-0.6869 -0.7267 0.7267 -0.6869 278.1006 85.8597)" class="st0 st2 st3">L</text>
		<text transform="matrix(-0.7184 -0.6957 0.6957 -0.7184 273.7902 81.2903)" class="st0 st2 st4">o</text>
		<text transform="matrix(-0.7507 -0.6606 0.6606 -0.7507 269.281 76.9298)" class="st0 st2 st5">r</text>
		<text transform="matrix(-0.7798 -0.6261 0.6261 -0.7798 264.5796 72.7895)" class="st0 st2 st4">e</text>
		<text transform="matrix(-0.8083 -0.5888 0.5888 -0.8083 259.6796 68.8683)" class="st0 st2 st6">m</text>
		<text transform="matrix(-0.859 -0.512 0.512 -0.859 249.3698 61.7297)" class="st0 st2 st4">i</text>
		<text transform="matrix(-0.8816 -0.4721 0.4721 -0.8816 243.9796 58.5195)" class="st0 st2 st4">p</text>
		<text transform="matrix(-0.9021 -0.4316 0.4316 -0.9021 238.4601 55.5703)" class="st0 st2 st4">s</text>
		<text transform="matrix(-0.9205 -0.3907 0.3907 -0.9205 232.85 52.8905)" class="st0 st2 st4">u</text>
		<text transform="matrix(-0.9372 -0.3487 0.3487 -0.9372 227.1002 50.4598)" class="st0 st2 st4">m</text>
		<text transform="matrix(-0.9659 -0.2589 0.2589 -0.9659 215.2502 46.3702)" class="st0 st2 st7">d</text>
		<text transform="matrix(-0.9757 -0.219 0.219 -0.9757 209.209 44.7407)" class="st0 st2 st8">o</text>
		<text transform="matrix(-0.9856 -0.1692 0.1692 -0.9856 203.0807 43.3802)" class="st0 st2 st3">l</text>
		<text transform="matrix(-0.9927 -0.1203 0.1203 -0.9927 196.8906 42.3195)" class="st0 st2 st9">o</text>
		<text transform="matrix(-0.9969 -7.863300e-02 7.863300e-02 -0.9969 190.67 41.5405)" class="st0 st2 st4">r</text>
		<text transform="matrix(-0.9999 9.999500e-03 -9.999500e-03 -0.9999 178.1499 40.8605)" class="st0 st2 st10">s</text>
		<text transform="matrix(-0.9982 6.017743e-02 -6.017743e-02 -0.9982 171.8796 40.9502)" class="st0 st2 st4">i</text>
		<text transform="matrix(-0.9939 0.1104 -0.1104 -0.9939 165.6196 41.3399)" class="st0 st2 st11">t</text>
		<text transform="matrix(-0.9798 0.2 -0.2 -0.9798 153.1897 42.9701)" class="st0 st2 st12">a</text>
		<text transform="matrix(-0.9703 0.2421 -0.2421 -0.9703 147.0403 44.2097)" class="st0 st2 st4">m</text>
		<text transform="matrix(-0.9582 0.2862 -0.2862 -0.9582 140.9609 45.7403)" class="st0 st2 st4">e</text>
		<text transform="matrix(-0.944 0.3299 -0.3299 -0.944 134.9497 47.5399)" class="st0 st2 st4">t</text>
		<text transform="matrix(-0.91 0.4147 -0.4147 -0.91 123.2291 51.9503)" class="st0 st2 st4">c</text>
		<text transform="matrix(-0.89 0.456 -0.456 -0.89 117.5195 54.5603)" class="st0 st2 st4">o</text>
		<text transform="matrix(-0.8681 0.4964 -0.4964 -0.8681 111.951 57.4299)" class="st0 st2 st4">n</text>
		<text transform="matrix(-0.8412 0.5408 -0.5408 -0.8412 106.5114 60.5403)" class="st0 st2 st13">s</text>
		<text transform="matrix(-0.8189 0.574 -0.574 -0.8189 101.2194 63.9004)" class="st0 st2 st4">e</text>
		<text transform="matrix(-0.7914 0.6113 -0.6113 -0.7914 96.0798 67.5097)" class="st0 st2 st4">c</text>
		<text transform="matrix(-0.76 0.65 -0.65 -0.76 91.121 71.3506)" class="st0 st2 st10">t</text>
		<text transform="matrix(-0.7316 0.6817 -0.6817 -0.7316 86.3496 75.4097)" class="st0 st2 st4">e</text>
		<text transform="matrix(-0.7021 0.7121 -0.7121 -0.7021 81.77 79.6897)" class="st0 st2 st14">t</text>
		<text transform="matrix(-0.6652 0.7466 -0.7466 -0.6652 77.3905 84.18)" class="st0 st2 st4">u</text>
		<text transform="matrix(-0.6299 0.7767 -0.7767 -0.6299 73.2208 88.8701)" class="st0 st2 st4">r</text>
		<text transform="matrix(-0.5593 0.829 -0.829 -0.5593 65.5587 98.7997)" class="st0 st2 st15">a</text>
		<text transform="matrix(-0.5174 0.8557 -0.8557 -0.5174 62.0784 104.0204)" class="st0 st2 st16">d</text>
		<text transform="matrix(-0.4789 0.8779 -0.8779 -0.4789 58.8517 109.3905)" class="st0 st2 st17">i</text>
		<text transform="matrix(-0.4359 0.9 -0.9 -0.4359 55.8709 114.9101)" class="st0 st2 st4">p</text>
		<text transform="matrix(-0.3903 0.9207 -0.9207 -0.3903 53.1292 120.5603)" class="st0 st2 st18">i</text>
		<text transform="matrix(-0.3528 0.9357 -0.9357 -0.3528 50.6896 126.2901)" class="st0 st2 st4">s</text>
		<text transform="matrix(-0.3097 0.9508 -0.9508 -0.3097 48.4797 132.1501)" class="st0 st2 st4">i</text>
		<text transform="matrix(-0.2707 0.9627 -0.9627 -0.2707 46.5501 138.1198)" class="st0 st2 st9">c</text>
		<text transform="matrix(-0.219 0.9757 -0.9757 -0.219 44.8911 144.1701)" class="st0 st2 st8">i</text>
		<text transform="matrix(-0.1752 0.9845 -0.9845 -0.1752 43.5099 150.28)" class="st0 st2 st4">n</text>
		<text transform="matrix(-0.1302 0.9915 -0.9915 -0.1302 42.4204 156.4597)" class="st0 st2 st19">g</text>
		<text transform="matrix(-3.664368e-02 0.9993 -0.9993 -3.664368e-02 41.0996 168.93)" class="st0 st2 st4">e</text>
		<text transform="matrix(9.599216e-03 1 -1 9.599216e-03 40.8694 175.2)" class="st0 st2 st4">l</text>
		<text transform="matrix(5.582145e-02 0.9984 -0.9984 5.582145e-02 40.9401 181.47)" class="st0 st2 st4">i</text>
		<text transform="matrix(0.1019 0.9948 -0.9948 0.1019 41.3002 187.73)" class="st0 st2 st4">t</text>
		<text transform="matrix(0.193 0.9812 -0.9812 0.193 42.8803 200.17)" class="st0 st2 st4">s</text>
		<text transform="matrix(0.2379 0.9713 -0.9713 0.2379 44.0903 206.33)" class="st0 st2 st4">e</text>
		<text transform="matrix(0.28 0.96 -0.96 0.28 45.5896 212.41)" class="st0 st2 st4">d</text>
		<text transform="matrix(0.3697 0.9292 -0.9292 0.3697 49.4099 224.3488)" class="st0 st2 st20">d</text>
		<text transform="matrix(0.4109 0.9117 -0.9117 0.4109 51.7303 230.17)" class="st0 st2 st4">o</text>
		<text transform="matrix(0.4926 0.8703 -0.8703 0.4926 57.15 241.4701)" class="st0 st2 st4">e</text>
		<text transform="matrix(0.5291 0.8486 -0.8486 0.5291 60.2493 246.9304)" class="st0 st2 st21">i</text>
		<text transform="matrix(0.5704 0.8213 -0.8213 0.5704 63.5905 252.2299)" class="st0 st2 st4">u</text>
		<text transform="matrix(0.6077 0.7942 -0.7942 0.6077 67.1598 257.37)" class="st0 st2 st4">s</text>
		<text transform="matrix(0.6392 0.769 -0.769 0.6392 70.9805 262.3497)" class="st0 st2 st15">m</text>
		<text transform="matrix(0.6785 0.7346 -0.7346 0.6785 75.0198 267.1499)" class="st0 st2 st4">o</text>
		<text transform="matrix(0.7119 0.7023 -0.7023 0.7119 79.2904 271.7499)" class="st0 st2 st4">d</text>
		<text transform="matrix(0.774 0.6332 -0.6332 0.774 88.4309 280.3399)" class="st0 st2 st22">t</text>
		<text transform="matrix(0.8 0.6 -0.6 0.8 93.2798 284.31)" class="st0 st2 st4">e</text>
		<text transform="matrix(0.829 0.5593 -0.5593 0.829 98.3196 288.04)" class="st0 st2 st15">m</text>
		<text transform="matrix(0.8542 0.52 -0.52 0.8542 103.5301 291.54)" class="st0 st2 st4">p</text>
		<text transform="matrix(0.8771 0.4802 -0.4802 0.8771 108.8902 294.8)" class="st0 st2 st4">o</text>
		<text transform="matrix(0.8982 0.4396 -0.4396 0.8982 114.3799 297.7999)" class="st0 st2 st4">r</text>
		<text transform="matrix(0.9342 0.3567 -0.3567 0.9342 125.75 303.04)" class="st0 st2 st4">i</text>
		<text transform="matrix(0.9507 0.3102 -0.3102 0.9507 131.6105 305.2703)" class="st0 st2 st23">n</text>
		<text transform="matrix(0.963 0.2696 -0.2696 0.963 137.5701 307.23)" class="st0 st2 st4">c</text>
		<text transform="matrix(0.9744 0.2248 -0.2248 0.9744 143.61 308.92)" class="st0 st2 st4">i</text>
		<text transform="matrix(0.9838 0.1795 -0.1795 0.9838 149.72 310.32)" class="st0 st2 st4">d</text>
		<text transform="matrix(0.9915 0.1302 -0.1302 0.9915 155.8991 311.4394)" class="st0 st2 st19">i</text>
		<text transform="matrix(0.9962 8.732961e-02 -8.732961e-02 0.9962 162.11 312.27)" class="st0 st2 st4">d</text>
		<text transform="matrix(0.9992 4.100374e-02 -4.100374e-02 0.9992 168.37 312.81)" class="st0 st2 st4">u</text>
		<text transform="matrix(1 -5.410494e-03 5.410494e-03 1 174.63 313.06)" class="st0 st2 st4">n</text>
		<text transform="matrix(0.9988 -4.993762e-02 4.993762e-02 0.9988 180.9098 313.0201)" class="st0 st2 st15">t</text>
		<text transform="matrix(0.9897 -0.1435 0.1435 0.9897 193.41 312.0701)" class="st0 st2 st4">u</text>
		<text transform="matrix(0.982 -0.1889 0.1889 0.982 199.61 311.1601)" class="st0 st2 st4">t</text>
		<text transform="matrix(0.9606 -0.278 0.278 0.9606 211.8501 308.4999)" class="st0 st2 st4">l</text>
		<text transform="matrix(0.9469 -0.3216 0.3216 0.9469 217.8699 306.7599)" class="st0 st2 st4">a</text>
		<text transform="matrix(0.9311 -0.3647 0.3647 0.9311 223.81 304.73)" class="st0 st2 st4">b</text>
		<text transform="matrix(0.9134 -0.4071 0.4071 0.9134 229.65 302.44)" class="st0 st2 st4">o</text>
		<text transform="matrix(0.8938 -0.4484 0.4484 0.8938 235.3699 299.8801)" class="st0 st2 st4">r</text>
		<text transform="matrix(0.8723 -0.4889 0.4889 0.8723 240.97 297.0702)" class="st0 st2 st4">e</text>
		<text transform="matrix(0.8237 -0.567 0.567 0.8237 251.7599 290.6799)" class="st0 st2 st4">e</text>
		<text transform="matrix(0.7967 -0.6043 0.6043 0.7967 256.9099 287.1198)" class="st0 st2 st4">t</text>
		<text transform="matrix(0.7363 -0.6766 0.6766 0.7363 266.7306 279.2898)" class="st0 st2 st16">d</text>
		<text transform="matrix(0.7071 -0.7071 0.7071 0.7071 271.35 275.0499)" class="st0 st2 st24">o</text>
		<text transform="matrix(0.6717 -0.7408 0.7408 0.6717 275.76 270.61)" class="st0 st2 st4">l</text>
		<text transform="matrix(0.6365 -0.7713 0.7713 0.6365 279.9701 265.9498)" class="st0 st2 st4">o</text>
		<text transform="matrix(0.6 -0.8 0.8 0.6 283.96 261.1198)" class="st0 st2 st4">r</text>
		<text transform="matrix(0.5624 -0.8269 0.8269 0.5624 287.72 256.0898)" class="st0 st2 st4">e</text>
		<text transform="matrix(0.4789 -0.8779 0.8779 0.4789 294.5191 245.5607)" class="st0 st2 st17">m</text>
		<text transform="matrix(0.4392 -0.8984 0.8984 0.4392 297.5404 240.07)" class="st0 st2 st25">a</text>
		<text transform="matrix(0.3919 -0.92 0.92 0.3919 300.35 234.4603)" class="st0 st2 st4">g</text>
		<text transform="matrix(0.361 -0.9326 0.9326 0.361 302.8299 228.7303)" class="st0 st2 st9">n</text>
		<text transform="matrix(0.3176 -0.9482 0.9482 0.3176 305.0799 222.8798)" class="st0 st2 st4">a</text>
		<text transform="matrix(0.229 -0.9734 0.9734 0.229 308.78 210.9101)" class="st0 st2 st4">a</text>
		<text transform="matrix(0.1836 -0.983 0.983 0.1836 310.21 204.7899)" class="st0 st2 st4">l</text>
		<text transform="matrix(0.1378 -0.9905 0.9905 0.1378 311.35 198.6298)" class="st0 st2 st4">i</text>
		<text transform="matrix(9.167545e-02 -0.9958 0.9958 9.167545e-02 312.2101 192.4105)" class="st0 st2 st4">q</text>
		<text transform="matrix(4.993762e-02 -0.9988 0.9988 4.993762e-02 312.7799 186.1698)" class="st0 st2 st15">u</text>
		<text transform="matrix(-1.047155e-03 -1 1 -1.047155e-03 313.06 179.91)" class="st0 st2 st4">a</text>
		<text transform="matrix(-9.341327e-02 -0.9956 0.9956 -9.341327e-02 312.74 167.3694)" class="st0 st2 st4">U</text>
		<text transform="matrix(-0.1392 -0.9903 0.9903 -0.1392 312.15 161.1203)" class="st0 st2 st4">t</text>
		<text transform="matrix(-0.2295 -0.9733 0.9733 -0.2295 310.1099 148.7602)" class="st0 st2 st4">e</text>
		<text transform="matrix(-0.274 -0.9617 0.9617 -0.274 308.6601 142.6605)" class="st0 st2 st4">n</text>
		<text transform="matrix(-0.3176 -0.9482 0.9482 -0.3176 306.94 136.6291)" class="st0 st2 st4">i</text>
		<text transform="matrix(-0.3608 -0.9326 0.9326 -0.3608 304.9401 130.6896)" class="st0 st2 st4">m</text>
		<text transform="matrix(-0.4392 -0.8984 0.8984 -0.4392 300.1408 119.1111)" class="st0 st2 st25">a</text>
		<text transform="matrix(-0.4851 -0.8745 0.8745 -0.4851 297.3502 113.4903)" class="st0 st2 st4">d</text>
	<path class="st0" d="M63.1,126.3C91.1,63.3,164.8,35,227.7,63S319,164.7,291,227.7c-28,62.9-101.7,91.3-164.7,63.2
		c-30.2-13.5-53.9-38.4-65.7-69.3C48.6,190.8,49.5,156.4,63.1,126.3z M290.2,227.4c27.8-62.5-0.3-135.8-62.8-163.6
		S91.6,64.1,63.8,126.6c-27.8,62.5,0.3,135.8,62.8,163.6C189.1,317.9,262.3,289.8,290.2,227.4z"/>
	<path class="st0" d="M65.3,127.3C92.8,65.6,165,37.9,226.7,65.3s89.4,99.7,61.9,161.3s-99.7,89.4-161.3,61.9
		c-29.6-13.2-52.8-37.6-64.4-67.8C51.2,190.5,52.1,156.9,65.3,127.3z M287.1,226c27.1-60.8-0.3-132.1-61.1-159.2S93.9,67,66.8,127.9
		c-27.1,60.8,0.3,132.1,61.1,159.2C188.8,314.1,260,286.8,287.1,226z"/>
	<path class="st0" d="M80.7,246.6l83.6-187.7l0.4,0.6l120.4,165.6L80.7,246.6z M164.5,60.5L82.1,245.6l201.5-21.2L164.5,60.5z"/>
	<path class="st0" d="M68.5,128.7l204.3-21.5l-83.6,187.7L68.5,128.7z M271.5,108.2L70,129.3l119.1,164L271.5,108.2z"/>
	<path class="st0" d="M207.7,267.2l-1.1,3c1.8-0.6,3.6-1.2,5.4-1.9c17.9-6.8,33.4-18.7,44.5-34.3l-3.1,0.2
		C241.8,249.5,225.9,261.1,207.7,267.2z M242.9,104.7c-15.6-14.2-35.4-23-56.4-25.1l1.7,2.7c19.1,2.3,37.1,10.3,51.6,23L242.9,104.7
		z M268.3,141.9c-0.7-1.8-1.4-3.6-2.2-5.3l-1.4,2.8c7.6,17.7,9.6,37.2,5.9,56.1l2,2.4C276.7,179.3,275.2,159.8,268.3,141.9
		L268.3,141.9z M170.7,279.4l-1.7-2.6c-22.8-1.8-44.3-11.4-60.9-27.1l-3,0.5C122.7,267.4,146,277.8,170.7,279.4L170.7,279.4z
		 M245.8,104.3l3-0.5c-17.7-17.3-40.9-27.6-65.6-29.2l1.7,2.6C207.7,79,229.2,88.5,245.8,104.3L245.8,104.3z M146.2,86.7l1.1-3
		c-1.8,0.6-3.6,1.2-5.4,1.9c-17.9,6.8-33.4,18.8-44.5,34.4l3.1-0.2C112.1,104.4,128,92.9,146.2,86.7z M85.6,212
		c0.7,1.8,1.4,3.6,2.2,5.3l1.4-2.8c-7.6-17.7-9.6-37.2-5.9-56.1l-2-2.4C77.2,174.7,78.7,194.1,85.6,212z M79.5,153.7l-1.9-2.4
		c-5.4,20.7-4.1,42.5,3.6,62.4c1.2,3.1,2.5,6.1,3.9,9l1.4-2.8C76.7,199.3,74.3,175.9,79.5,153.7L79.5,153.7z M274.4,200.2l1.9,2.4
		c5.4-20.7,4.1-42.5-3.6-62.4c-1.2-3.1-2.5-6.1-3.9-9l-1.4,2.8C277.2,154.6,279.7,178,274.4,200.2L274.4,200.2z M148.4,81l1.1-2.9
		c-3.1,0.9-6.2,1.9-9.3,3.1c-19.9,7.6-37,21.3-48.7,39.1l3-0.2C107.4,101.3,126.5,87.5,148.4,81z M167.4,274.3l-1.7-2.6
		c-19.1-2.3-37.1-10.3-51.6-23l-3.1,0.5C126.6,263.4,146.4,272.2,167.4,274.3L167.4,274.3z M262.5,233.6l-3,0.2
		c-13,18.8-32,32.6-53.9,39.1l-1.1,2.9c3.1-0.9,6.2-1.9,9.3-3.1C233.7,265.1,250.7,251.4,262.5,233.6L262.5,233.6z"/>
</clipPath>

    <clipPath id="cross">
      <rect y="110" x="137" width="90" height="90"/>
      <rect x="0" y="110" width="90" height="90"/>
      <rect x="137" y="0" width="90" height="90"/>
      <rect x="0" y="0" width="90" height="90"/>
    </clipPath>
</defs>
</svg>
